<?xml version="1.0" encoding="UTF-8" standalone="no"?>
<svg
   xmlns:dc="http://purl.org/dc/elements/1.1/"
   xmlns:cc="http://creativecommons.org/ns#"
   xmlns:rdf="http://www.w3.org/1999/02/22-rdf-syntax-ns#"
   xmlns:svg="http://www.w3.org/2000/svg"
   xmlns="http://www.w3.org/2000/svg"
   viewBox="0 0 800.0365 780.04413"
   height="780.04413"
   width="800.0365"
   version="1.1"
   id="svg2">
  <metadata
     id="metadata8">
    <rdf:RDF>
      <cc:Work
         rdf:about="">
        <dc:format>image/svg+xml</dc:format>
        <dc:type
           rdf:resource="http://purl.org/dc/dcmitype/StillImage" />
        <dc:title></dc:title>
      </cc:Work>
    </rdf:RDF>
  </metadata>
  <defs
     id="defs6" />
  <g
     transform="translate(-239.94094,-250.05721)"
     id="g3338">
    <path
       id="path3354"
       d="M 501.875,1025.7671 C 463.68535,1011.8216 427.41576,991.50948 392.50753,964.5177 375.78929,951.59083 340.90565,916.99428 327.55868,900.10338 278.57465,838.11299 250.13056,768.37571 241.77509,689.78494 239.01713,663.84389 239.9346,618.10671 243.71405,593.125 255.32064,516.40693 286.16669,448.28253 335.68704,390 c 12.58009,-14.80601 40.03877,-41.39997 54.94355,-53.21326 61.55962,-48.79119 134.24539,-78.09695 212.43926,-85.65219 22.04345,-2.12987 74.4116,-0.80505 95.05515,2.40474 45.31566,7.04595 89.85839,21.48302 126.875,41.12241 97.09274,51.51311 167.33011,136.48453 198.6637,240.3383 10.995,36.44253 15.0819,63.35856 15.9695,105.17501 0.9435,44.45224 -2.0343,71.58975 -12.1439,110.66932 -32.0104,123.73925 -121.79951,224.67387 -242.10263,272.15477 -14.93078,5.8928 -18.98658,7.0002 -25.625,6.9962 -9.26192,-0.01 -14.69993,-2.7045 -18.13848,-9.0025 -2.06415,-3.7807 -2.30498,-9.8991 -2.94195,-74.7428 -0.61577,-62.68377 -0.94587,-71.53859 -2.93575,-78.75 -3.36505,-12.19501 -11.15263,-27.54215 -17.63317,-34.75008 -6.6462,-7.39217 -7.55847,-6.61985 10.63768,-9.00573 5.84375,-0.76624 16.91529,-2.78563 24.6034,-4.48753 87.87614,-19.45299 132.47119,-71.23388 140.38554,-163.00666 4.58336,-53.14744 -5.259,-91.25817 -32.38308,-125.39096 l -7.33896,-9.23532 3.13095,-10.49936 c 4.21085,-14.12067 5.37054,-43.55511 2.39029,-60.66897 -2.53205,-14.54014 -7.9039,-31.86939 -10.50639,-33.89289 -4.54783,-3.53606 -26.11223,-0.30554 -45.28175,6.78357 -14.20889,5.2546 -38.70374,17.77187 -52.95179,27.05923 l -10.31745,6.72525 -11.80287,-2.9044 c -55.68148,-13.70181 -119.87574,-13.7066 -176.51788,-0.0133 l -11.89727,2.87621 -11.69388,-7.34815 c -15.8612,-9.9668 -40.61705,-22.41211 -53.80169,-27.0473 -17.5103,-6.15591 -38.85076,-9.42628 -43.25953,-6.62941 -0.88954,0.56432 -2.96758,5.01696 -4.61785,9.89475 -9.56977,28.2858 -10.7234,62.28991 -2.96608,87.42725 l 2.39511,7.7613 -8.87455,11.6137 c -14.6516,19.17382 -26.29945,46.0317 -29.89317,68.92834 -4.35333,27.73625 -1.95774,66.42086 6.05357,97.755 7.58815,29.67905 21.75507,55.01205 41.71604,74.59581 28.14451,27.61267 67.62324,43.73641 126.28318,51.57607 l 5.9789,0.79907 -5.66314,6.29876 c -7.48408,8.3241 -13.79975,21.44005 -17.35211,36.03564 l -2.8902,11.875 -6.77618,2.76483 c -18.8917,7.70828 -45.17154,9.59465 -61.77616,4.4343 -18.82238,-5.84957 -32.5754,-17.38325 -47.68686,-39.99155 -14.64599,-21.9119 -30.69229,-34.67472 -49.87852,-39.6721 -14.26612,-3.71585 -28.15863,-1.23105 -29.07398,5.20015 -0.45694,3.21034 6.78947,10.99653 15.03433,16.15424 18.87769,11.80926 30.48043,27.54533 46.97472,63.70885 8.98562,19.70088 30.28518,36.16291 55.95283,43.24491 8.60673,2.37469 13.08717,2.73892 33.67748,2.73767 16.49647,-10e-4 26.51381,-0.58392 32.79945,-1.90859 4.9772,-1.04893 9.33657,-1.62001 9.6875,-1.26909 0.35092,0.35093 0.63717,18.40366 0.63611,40.11721 -10e-4,35.09138 -0.24485,39.96258 -2.1875,43.82928 -5.53231,11.0114 -17.70154,12.9069 -37.18556,5.792 z m -6.76989,-117.3798 c -1.6416,-0.83176 -3.60244,-2.53076 -4.35741,-3.77554 -1.1276,-1.85912 -0.74646,-2.80771 2.1345,-5.3125 1.92896,-1.6771 4.28298,-3.04926 5.23113,-3.04926 3.35503,0 8.00177,2.41229 9.29252,4.82409 2.71583,5.07456 -6.22635,10.39098 -12.30074,7.31321 z m 28.68991,-4.34949 c -7.43436,-6.01997 4.19634,-15.1817 12.17684,-9.59194 5.28295,3.70033 2.35388,9.10808 -6.0509,11.17139 -2.1895,0.5375 -4.12923,0.0374 -6.12594,-1.57945 z M 465,904.11721 c -2.78238,-1.01711 -7.5,-5.58777 -7.5,-7.26637 0,-2.40529 4.35487,-5.60084 7.63279,-5.60084 3.56602,0 8.04701,2.84892 9.88618,6.28546 1.00819,1.88382 0.73849,2.95708 -1.24032,4.93589 -2.49496,2.49496 -5.11311,2.98582 -8.77865,1.64586 z M 436.59605,887.5341 c -6.54231,-3.98901 -6.98934,-12.59309 -0.70327,-13.53595 3.02762,-0.45412 9.79013,4.94831 10.73979,8.5798 0.42552,1.62716 -0.2232,3.51268 -1.72533,5.01481 -2.97833,2.97833 -3.3344,2.97581 -8.31119,-0.0586 z m -21.02786,-24.35229 c -4.78641,-4.7864 -3.54637,-11.93181 2.0707,-11.93181 2.60543,0 8.61111,6.86686 8.61111,9.84591 0,5.55739 -6.03235,6.73538 -10.68181,2.0859 z m -15.40435,-22.04746 c -1.85013,-1.72365 -2.6765,-3.74848 -2.4232,-5.9375 0.31721,-2.74146 1.01598,-3.32185 3.99946,-3.32185 4.97322,0 9.13355,5.40691 7.09344,9.2189 -1.80433,3.37141 -5.07794,3.38669 -8.6697,0.0405 z M 382.04017,823.6065 c -2.48696,-3.55065 -1.27324,-6.1065 2.89983,-6.1065 3.98069,0 8.19607,4.03945 7.12584,6.82844 -1.12085,2.92089 -7.81159,2.43909 -10.02567,-0.72194 z"
       style="fill-opacity:1" />
    <path
       id="path3352"
       d="M 500.11617,1024.9694 C 442.93546,1003.1985 394.1668,971.10122 352.08061,927.53939 242.91676,814.54792 210.18127,648.12702 268.35115,501.875 304.71037,410.45985 373.36297,335.91679 462.1832,291.41202 c 37.42605,-18.75291 76.36675,-30.94295 120.9418,-37.85975 21.02938,-3.26317 69.94335,-4.51855 92.75966,-2.38068 137.98021,12.9286 258.40623,94.45902 320.621,217.06575 21.05064,41.48457 32.75904,78.08254 39.94124,124.84829 3.6346,23.66657 4.5085,72.23299 1.7645,98.06474 -5.3523,50.38527 -19.0391,96.42073 -41.83891,140.72463 -20.2828,39.41296 -39.02293,65.43605 -70.07285,97.30523 -34.17884,35.08065 -70.3556,61.09471 -113.95061,81.93987 -44.85843,21.4492 -61.67715,23.9212 -70.14183,10.3093 l -2.8322,-4.5544 0.36322,-58.125 c 0.38225,-61.16871 -0.48115,-78.08465 -4.77671,-93.58569 -3.43054,-12.37951 -10.25313,-25.49684 -17.02942,-32.74122 l -5.63298,-6.02211 4.16294,-0.64516 c 2.28962,-0.35482 10.0692,-1.55261 17.28795,-2.66176 90.05179,-13.83618 141.41634,-59.14197 156.19946,-137.77481 12.37609,-65.82956 2.04059,-118.80421 -30.70331,-157.36991 l -5.45565,-6.42567 2.32294,-6.75176 c 5.72138,-16.6295 7.15398,-44.81295 3.31837,-65.2823 -2.24897,-12.002 -7.68642,-30.42265 -9.71951,-32.92711 -0.69763,-0.85938 -3.87141,-1.55825 -7.05285,-1.55306 -22.19983,0.0362 -55.46536,12.56836 -88.71344,33.42101 -10.88941,6.82966 -13.55149,7.9967 -16.875,7.39791 -2.17031,-0.391 -10.48916,-2.12913 -18.48635,-3.8625 -28.00516,-6.07003 -42.96452,-7.4996 -78.58466,-7.50981 -36.05386,-0.01 -55.50895,2.01579 -84.375,8.78707 -7.5625,1.77398 -14.3125,3.24998 -15,3.28 -0.6875,0.03 -7.15625,-3.67623 -14.375,-8.23612 -15.72834,-9.93515 -39.58964,-21.83789 -52.5,-26.18859 -19.75406,-6.65697 -39.18531,-8.98452 -43.01709,-5.15275 -2.54895,2.54895 -7.65549,19.55746 -10.06702,33.53058 -3.51902,20.39018 -1.86868,49.96462 3.66307,65.64327 l 1.91204,5.41929 -4.80851,5.7931 c -26.06478,31.40176 -38.13882,70.11385 -35.92017,115.1681 2.87887,58.46109 17.93448,99.38454 47.61268,129.41854 27.37479,27.70299 65.52375,44.46436 119.60601,52.55087 7.05226,1.05448 13.04836,2.14329 13.32466,2.4196 0.27632,0.27632 -1.86637,3.19344 -4.76152,6.4825 -8.38614,9.52717 -18.79415,34.20695 -18.79415,44.56528 0,2.63818 -7.56454,6.04043 -21.66525,9.7442 -12.17112,3.19693 -32.90259,3.79066 -43.33475,1.24107 -19.7197,-4.81944 -36.46765,-17.77042 -50.67539,-39.18665 -10.34395,-15.59209 -18.2096,-24.10762 -29.16916,-31.57921 -12.29845,-8.38438 -20.94,-11.1816 -34.71171,-11.23603 -9.52783,-0.0376 -11.8694,0.35133 -14.0625,2.33607 -5.44263,4.9255 -2.3006,9.9381 12.8341,20.4748 17.87877,12.44711 29.95006,27.27817 39.65032,48.71532 2.71985,6.01075 6.47838,14.0134 8.35227,17.78365 4.20195,8.45429 19.58191,24.09039 29.36258,29.85156 8.72619,5.14005 24.98808,10.84277 35.91949,12.59624 11.70488,1.87754 36.14046,1.60656 50.51609,-0.56019 6.8151,-1.02718 13.14322,-1.86762 14.0625,-1.86762 1.36055,0 1.66759,7.38134 1.65085,39.6875 -0.0201,38.8154 -0.0824,39.7974 -2.83134,44.6875 -6.0875,10.8289 -17.76891,12.1545 -38.28192,4.3444 z m -8.04743,-118.50532 c -2.70266,-2.9864 -2.60936,-4.33735 0.49343,-7.14534 2.98163,-2.69834 10.05835,-3.06223 12.94602,-0.66569 2.7426,2.27616 2.50258,7.23563 -0.42602,8.80298 -3.86615,2.06909 -10.71573,1.54698 -13.01343,-0.99195 z m 32.76987,-1.93539 c -5.88394,-2.93346 -3.43194,-9.79083 4.0918,-11.44331 3.99326,-0.87708 9.81959,1.98846 9.81959,4.82952 0,5.07806 -8.69765,9.21311 -13.91139,6.61379 z m -60.95362,-1.10961 c -1.64452,-0.84924 -3.79512,-2.76847 -4.77913,-4.26495 -1.61115,-2.45023 -1.51837,-2.99162 0.93273,-5.44272 2.09171,-2.09171 3.61317,-2.54356 6.5721,-1.95177 8.14597,1.6292 11.57817,9.58984 5.18293,12.0213 -4.01887,1.52797 -4.27145,1.51641 -7.90863,-0.36186 z m -29.48917,-17.65962 c -3.83524,-3.83525 -4.11648,-8.90202 -0.59861,-10.78473 5.17792,-2.77113 12.9525,3.31757 12.23588,9.58258 -0.34361,3.00404 -1.04663,3.62933 -4.44977,3.95784 -2.98681,0.28831 -4.86272,-0.43091 -7.1875,-2.75569 z m -18.82763,-22.57765 c -4.73746,-4.73746 -3.55332,-11.93181 1.96392,-11.93181 2.26369,0 6.6606,4.39742 7.90214,7.90305 1.11776,3.15615 -1.26164,7.09695 -4.28505,7.09695 -1.38206,0 -3.89351,-1.38069 -5.58101,-3.06819 z m -14.84365,-22.07684 c -4.29018,-3.37465 -4.12533,-9.01367 0.28176,-9.63842 5.09836,-0.72275 9.87498,5.66289 7.55201,10.09595 -1.51468,2.89057 -3.74279,2.76045 -7.83377,-0.45753 z m -18.30818,-17.43861 c -2.0538,-2.0538 -2.27876,-2.95101 -1.09695,-4.375 2.07341,-2.4983 6.64209,-2.2345 9.14199,0.52786 4.82275,5.32909 -2.87976,9.01242 -8.04504,3.84714 z"
       style="fill-opacity:1" />
    <path
       id="path3350"
       d="M 500.625,1025.0968 C 459.51107,1009.3524 423.07963,988.59446 389.375,961.70861 371.74723,947.64711 342.35289,918.25277 328.29139,900.625 281.28496,841.69685 253.0684,775.03287 242.86307,698.79349 c -2.94968,-22.03581 -2.91651,-75.75033 0.0606,-98.16849 8.6732,-65.30975 30.75039,-123.56631 66.79256,-176.25 C 366.27369,341.70369 453.60621,281.93407 550,259.92695 c 33.11295,-7.55984 48.43741,-9.15379 88.75,-9.23116 38.36702,-0.0736 45.42216,0.50101 77.09691,6.27975 51.54508,9.40389 107.73263,33.0226 152.27809,64.01083 25.54724,17.77206 56.35626,45.67845 76.19191,69.01363 42.28384,49.7438 72.12639,109.25527 86.22869,171.95555 10.8171,48.09399 12.4082,103.93163 4.3681,153.29003 -10.743,65.95119 -37.66861,126.98792 -80.396,182.2469 -12.91956,16.70877 -47.52046,51.59957 -64.38989,64.92937 -31.99139,25.27881 -65.04624,44.45595 -102.62781,59.54075 -26.87723,10.7882 -38.33639,10.6533 -45.2928,-0.5332 l -2.8322,-4.5544 0,-67.5 c 0,-59.34739 -0.25785,-68.57425 -2.13493,-76.39429 -4.32197,-18.00574 -11.53806,-32.93306 -20.36388,-42.12506 -1.85854,-1.93564 -3.116,-3.7825 -2.79437,-4.10414 0.32163,-0.32164 6.42543,-1.44004 13.56398,-2.48535 53.44981,-7.82677 90.76979,-23.97479 118.10376,-51.10245 28.25028,-28.03704 43.12343,-63.59312 48.12082,-115.03871 1.7633,-18.15223 0.77978,-50.27359 -1.91367,-62.5 -5.73766,-26.04511 -18.67694,-52.43588 -34.05435,-69.45684 -3.43071,-3.79739 -4.06477,-5.24617 -3.09172,-7.06435 5.15389,-9.6301 8.36924,-37.84976 6.47337,-56.81371 -1.42525,-14.2565 -6.20681,-34.92351 -9.78433,-42.2901 -1.89697,-3.9061 -2.72754,-4.41963 -7.74968,-4.79141 -19.99551,-1.48027 -54.53167,11.08666 -88.5654,32.22695 -7.80472,4.84795 -14.93158,8.81446 -15.83744,8.81446 -0.90587,0 -7.45769,-1.38639 -14.5596,-3.08085 -28.85687,-6.88506 -46.28817,-8.66686 -84.78756,-8.66686 -38.40979,0 -55.32669,1.7347 -84.79833,8.69542 -7.10783,1.67877 -13.69785,3.05229 -14.64448,3.05229 -0.94664,0 -6.66239,-3.22518 -12.70168,-7.16705 -22.80794,-14.8869 -52.3335,-28.05842 -72.00437,-32.12155 -11.51655,-2.37881 -23.80058,-2.57049 -25.56344,-0.3989 -2.10321,2.59085 -7.68661,21.6812 -9.67354,33.07506 -3.55905,20.40912 -1.84531,50.7229 3.76675,66.6292 l 1.80154,5.1061 -7.43864,9.36075 c -24.66757,31.04154 -35.07217,65.58369 -33.28915,110.51639 1.52595,38.45444 7.79311,66.31405 20.95831,93.16661 24.92557,50.83975 72.45534,79.65485 149.52453,90.64978 5.67187,0.80917 10.3125,1.74206 10.3125,2.0731 0,0.33103 -2.3273,3.21945 -5.17178,6.4187 -7.00112,7.87432 -14.35336,23.55742 -17.0839,36.44181 l -2.25172,10.625 -11.8088,3.98207 c -22.95225,7.73979 -43.08695,8.11009 -61.62258,1.13331 -16.99647,-6.39747 -28.63102,-16.76366 -42.50385,-37.8702 -18.33758,-27.89942 -42.4752,-42.91954 -66.51277,-41.38894 -8.37046,0.533 -13.0446,3.17259 -13.0446,7.36659 0,3.48157 5.84814,9.55291 15.49544,16.08681 17.71467,11.99777 31.26198,29.3904 42.24526,54.23629 6.89356,15.59433 11.92575,22.98851 21.7651,31.98112 11.97461,10.94413 27.60951,18.35299 46.54166,22.05456 10.54153,2.06107 38.1341,2.3415 50.20254,0.51024 4.46875,-0.6781 10.51562,-1.58699 13.4375,-2.01977 l 5.3125,-0.78689 0,39.28005 c 0,38.27636 -0.0719,39.42016 -2.8125,44.76486 -5.85497,11.4183 -17.34294,12.9804 -37.8125,5.1417 z m -8.55626,-118.63273 c -2.6512,-2.92953 -2.60678,-4.33968 0.21718,-6.89533 C 494.95655,897.15185 503.7857,896.7857 506,899 c 2.2964,2.2964 1.78482,7.00961 -0.91783,8.45603 -3.86615,2.06909 -10.71573,1.54698 -13.01343,-0.99195 z m -26.73133,-2.34297 c -4.14052,-0.79978 -8.08812,-6.31699 -6.56122,-9.17004 1.52745,-2.85406 5.36163,-4.13227 9.03631,-3.01245 7.37024,2.24603 9.84661,9.61228 3.98112,11.84233 -1.7635,0.67048 -3.31037,1.14246 -3.4375,1.04883 -0.12711,-0.0936 -1.48553,-0.41253 -3.01871,-0.70867 z M 522.75,903.5 c -3.93595,-3.93595 0.88142,-10.25 7.82036,-10.25 7.53036,0 10.34524,4.5844 5.67964,9.25 -2.82978,2.82977 -11.06054,3.43946 -13.5,1 z m -88.14268,-17.98359 c -3.93741,-3.93741 -4.35932,-8.6422 -0.93916,-10.47261 5.09819,-2.72848 13.06362,3.41367 12.36304,9.53316 -0.58668,5.12443 -6.73341,5.62991 -11.42388,0.93945 z M 416.2818,863.7818 c -3.63057,-3.63058 -4.53804,-8.56128 -2.03611,-11.0632 1.87582,-1.87583 2.38891,-1.89094 5.47456,-0.1613 4.58995,2.57287 7.08033,7.8283 5.29254,11.16881 -1.71694,3.20813 -5.55408,3.2326 -8.73099,0.0556 z m -15.55726,-22.67683 c -2.41104,-1.89652 -3.25464,-3.57372 -2.98108,-5.92681 0.4665,-4.01255 3.73163,-4.88724 7.943,-2.12784 4.69629,3.07713 3.80925,10.69968 -1.24512,10.69968 -0.1948,0 -1.86737,-1.19026 -3.7168,-2.64503 z m -17.49655,-16.5001 c -3.16852,-2.31687 -2.06897,-6.39368 1.84792,-6.85153 4.32819,-0.50594 8.44744,3.88245 6.19355,6.59821 -1.93765,2.33473 -5.06046,2.4331 -8.04147,0.25332 z"
       style="fill-opacity:1" />
    <path
       id="path3348"
       d="M 510.625,1028.5036 C 401.97075,990.86501 314.37544,908.5616 270.45776,802.84561 232.24765,710.8685 230.25739,603.27234 265.05265,510.63744 285.93342,455.04685 315.96554,408.71847 358.651,366.25 421.76185,303.45997 498.5526,265.64945 588.75,252.95295 c 19.75646,-2.78099 77.59665,-3.18153 97.5,-0.67518 93.76026,11.80685 174.94821,51.88758 240.08546,118.52495 61.21914,62.62905 97.93414,138.24636 110.74514,228.08773 1.7136,12.01702 2.1998,23.60216 2.1712,51.73455 -0.04,39.27634 -1.5966,54.74621 -8.7077,86.52809 -28.9713,129.48287 -120.05105,235.83757 -244.2941,285.26461 -16.57816,6.5952 -26.5171,8.7275 -33.04434,7.0892 -4.81334,-1.208 -11.66797,-7.8794 -12.71175,-12.3718 -0.51245,-2.2056 -0.99122,-33.8226 -1.06395,-70.2601 -0.11287,-56.56444 -0.42822,-67.44232 -2.15682,-74.40558 -3.68475,-14.84311 -9.46645,-27.7451 -16.65092,-37.15692 -3.8048,-4.98438 -6.6226,-9.0625 -6.26178,-9.0625 0.36081,0 6.31767,-0.85036 13.23747,-1.8897 63.31705,-9.51009 105.293,-30.74887 132.35243,-66.96704 24.32,-32.55154 36.46137,-79.30162 34.70822,-133.64326 -0.56407,-17.48462 -1.2407,-22.85696 -4.44386,-35.2838 -5.62659,-21.8287 -15.75793,-42.04433 -29.56781,-58.99837 l -6.0335,-7.40717 2.64588,-10.09283 c 4.40694,-16.81047 5.77252,-32.85255 4.14833,-48.7325 -1.55283,-15.18227 -4.77125,-30.01799 -8.91415,-41.09089 L 849.82038,415 l -8.08789,0 c -22.50382,0 -54.65295,12.18941 -88.59876,33.5924 l -12.49127,7.8758 -15.00873,-3.33329 C 692.16369,445.70156 679.8952,444.46214 640,444.48381 c -40.161,0.0217 -54.45284,1.48624 -85.22002,8.7322 l -14.47322,3.40859 -15.55475,-9.5429 c -17.06482,-10.46932 -39.58436,-21.53245 -52.26806,-25.67764 -18.14651,-5.93048 -39.33839,-8.36202 -42.19625,-4.84156 -1.97293,2.43035 -7.39333,20.62291 -9.61766,32.2799 -3.89632,20.4192 -2.23558,50.57034 3.71431,67.4341 l 1.79696,5.09315 -5.81229,7.12768 c -28.67732,35.16728 -39.1007,74.76976 -34.11803,129.62767 6.99592,77.02349 40.79842,125.93675 104.3966,151.06512 14.68711,5.80305 35.8577,11.20862 57.55772,14.6964 9.58083,1.5399 17.64256,2.97139 17.91495,3.18109 0.2724,0.20969 -1.86675,2.94375 -4.75367,6.07569 -6.75007,7.32295 -14.3481,23.07589 -17.04769,35.3448 -1.16625,5.3003 -2.2824,10.25192 -2.48033,11.00362 -0.62193,2.36208 -23.45171,9.13339 -35.33051,10.47904 -11.59025,1.31296 -24.66934,0.29528 -34.00806,-2.64617 -17.43089,-5.49028 -33.15598,-18.74683 -46.62063,-39.30213 C 408.36715,821.28811 385.71369,806.25 362.95319,806.25 c -21.84525,0 -22.1097,10.02122 -0.63774,24.16702 16.63976,10.96233 31.99476,30.894 41.90784,54.39884 6.04225,14.3267 10.8742,21.38301 21.16992,30.91526 9.82585,9.09724 25.78894,17.67358 39.26543,21.09579 17.9016,4.54593 43.86868,4.7935 66.79148,0.6368 4.15771,-0.75394 7.91219,-1.01807 8.34329,-0.58696 0.4311,0.4311 0.99979,17.87418 1.26375,38.76238 0.46976,37.17497 0.42119,38.09987 -2.29537,43.71147 -4.51593,9.3287 -16.43585,13.2063 -28.13679,9.153 z M 492.40837,906.15837 c -2.32885,-2.32885 -2.40946,-2.86751 -0.79504,-5.3125 2.06615,-3.12912 9.30207,-4.28188 13.33374,-2.1242 3.27392,1.75216 3.35525,7.01098 0.1351,8.73436 -3.95266,2.1154 -9.86622,1.50992 -12.6738,-1.29766 z M 522.75,903.5 c -0.825,-0.825 -1.5,-2.42533 -1.5,-3.55626 0,-5.75578 12.26531,-9.12477 15.77011,-4.33168 2.30568,3.1532 2.20328,3.84953 -1.00581,6.83924 -3.0681,2.85837 -10.84016,3.47284 -13.2643,1.0487 z m -61.25886,-1.70221 c -3.94172,-2.78765 -3.32363,-8.20478 1.11306,-9.75533 3.68554,-1.28804 9.42432,0.9387 11.6491,4.52004 3.36066,5.40981 -6.68716,9.53161 -12.76216,5.23529 z m -26.94888,-16.82698 c -3.80592,-4.52307 -4.07986,-6.50464 -1.28555,-9.29896 4.05021,-4.05021 13.49425,2.73879 12.74939,9.16511 -0.30891,2.66523 -1.11893,3.35986 -4.27634,3.66726 -3.08315,0.30017 -4.58162,-0.4365 -7.1875,-3.53341 z M 416.6361,863.84142 c -3.54563,-3.30325 -4.59025,-6.9072 -2.91137,-10.04421 1.73619,-3.24411 3.83401,-3.21906 8.04861,0.0961 2.73079,2.14803 3.28938,3.49483 2.98107,7.1875 -0.45606,5.46216 -3.94503,6.64856 -8.11831,2.76056 z m -15.91156,-22.73645 c -4.20865,-3.31052 -4.12798,-9.01242 0.1361,-9.61933 5.62241,-0.80025 10.95197,9.57165 5.91212,11.50562 -2.61026,1.00165 -2.22341,1.1223 -6.04822,-1.88629 z m -17.49655,-16.5001 c -2.93937,-2.14931 -2.08157,-6.37203 1.39541,-6.86923 3.83222,-0.54801 8.56467,4.30412 6.55719,6.723 -1.85539,2.23561 -5.01574,2.29372 -7.9526,0.14623 z"
       style="fill-opacity:1" />
    <path
       id="path3346"
       d="m 499.375,1024.3475 c -22.71091,-8.412 -57.79141,-26.39807 -78.86825,-40.43646 -25.00051,-16.6518 -42.74691,-31.12563 -63.01954,-51.39825 C 253.3702,828.39579 214.68653,675.2198 257.09775,535 c 6.74485,-22.29981 12.27601,-36.37695 23.08397,-58.75 21.0078,-43.4873 43.93492,-75.64153 78.46352,-110.04151 90.95571,-90.61689 217.6891,-131.33205 345.61542,-111.03458 151.52927,24.04245 277.5829,135.81037 320.21464,283.92454 9.2938,32.2892 14.0636,63.462 15.1522,99.02655 2.9299,95.71554 -27.7109,187.22607 -87.89376,262.5 -14.13179,17.67539 -43.52856,47.06007 -61.10874,61.08361 -33.41289,26.65314 -70.29165,47.67719 -110,62.70959 -20.07947,7.6014 -30.60744,6.9486 -37.41115,-2.3199 -2.52332,-3.4375 -2.60725,-5.2882 -3.31585,-73.12501 -0.69427,-66.46677 -0.85112,-70.07499 -3.48596,-80.19289 -3.50543,-13.46104 -9.808,-26.58211 -17.02276,-35.43899 l -5.65048,-6.93655 5.9431,-0.7973 c 61.41484,-8.23919 100.10476,-24.79769 129.27056,-55.3252 15.63589,-16.36589 26.27908,-34.4127 34.28065,-58.12699 10.64999,-31.56336 14.94713,-80.30938 9.78482,-110.9976 -4.49644,-26.72988 -18.11783,-56.30875 -34.0539,-73.94807 l -4.43055,-4.90409 1.63263,-5.8403 c 4.65877,-16.66549 5.46763,-22.69217 5.48135,-40.84031 0.0152,-20.11415 -1.48342,-29.66059 -7.75111,-49.375 l -3.37794,-10.625 -8.66293,-0.37596 c -21.17498,-0.91899 -57.56684,12.89088 -90.44438,34.32155 l -10.70277,6.97642 -14.41667,-3.28591 c -34.41028,-7.84296 -57.65045,-10.0615 -95.98702,-9.16309 -30.13961,0.70631 -48.38605,2.87585 -75.6905,8.99974 l -14.68211,3.29292 -12.15352,-7.6176 C 493.48605,427.27916 461.12012,415 438.75809,415 l -8.57847,0 -2.43686,6.5625 c -7.22747,19.46366 -11.10684,47.85545 -9.12131,66.75594 1.21145,11.532 4.45544,26.66487 6.59862,30.78197 0.90718,1.74269 -0.0433,3.64068 -4.38171,8.75 -17.44175,20.54093 -29.86439,48.24395 -34.03269,75.89439 -4.53463,30.08051 -0.4252,76.0533 9.5182,106.48126 21.32479,65.25637 71.90169,102.55354 155.01655,114.31461 l 14.67533,2.07662 -6.7779,8.87886 c -7.28839,9.54759 -13.1616,22.93609 -15.99858,36.47017 -0.94245,4.49604 -1.91621,8.33268 -2.16391,8.52588 -1.65262,1.28894 -13.03269,5.01457 -21.56789,7.06095 -12.71593,3.04874 -32.85728,3.26321 -43.70205,0.46537 -19.14923,-4.94033 -35.39928,-17.94963 -49.83141,-39.89352 -17.78329,-27.0393 -40.11063,-41.875 -63.02082,-41.875 -10.49823,0 -16.70319,2.5141 -16.70319,6.76772 0,4.29777 6.31526,11.14864 16.40372,17.79494 9.51333,6.26741 21.79757,18.82695 28.19338,28.82523 2.37261,3.70897 8.29298,15.01088 13.15636,25.11535 8.19659,17.02972 9.5832,19.10728 18.98203,28.4407 24.32603,24.15672 59.03863,32.36135 105.00476,24.8188 6.11339,-1.00314 11.34277,-1.59639 11.62084,-1.31832 0.27807,0.27808 0.61996,18.43247 0.75975,40.34308 0.2407,37.7275 0.12325,40.0541 -2.21854,43.9265 -3.11408,5.1498 -11.02801,9.0505 -18.23445,8.9877 -3.37424,-0.029 -11.41154,-2.222 -20.54285,-5.6042 z m -6.84665,-118.06915 c -1.38833,-1.38833 -2.14568,-3.3211 -1.72794,-4.40972 2.34107,-6.10073 16.69959,-5.59682 16.69959,0.58607 0,6.05607 -10.1476,8.6477 -14.97165,3.82365 z M 522.75,903.5 c -4.19686,-4.19686 0.49736,-9.75 8.24195,-9.75 3.96841,0 5.49574,0.60849 6.57116,2.61794 1.15915,2.16588 0.91329,3.13717 -1.42391,5.625 -3.11375,3.31443 -10.7251,4.17116 -13.3892,1.50706 z m -61.22186,-1.69588 c -3.9468,-2.76445 -3.67774,-7.77397 0.50291,-9.36345 4.01021,-1.52468 12.11079,1.92379 12.75967,5.43188 1.00687,5.44352 -7.50255,7.96606 -13.26258,3.93157 z m -26.98588,-16.83331 c -1.81075,-2.15194 -3.29226,-4.38596 -3.29226,-4.96449 0,-5.77057 7.01474,-6.85522 12.01254,-1.85742 4.55847,4.55849 3.77696,9.83839 -1.53278,10.35532 -3.08315,0.30017 -4.58162,-0.4365 -7.1875,-3.53341 z m -18.38841,-22.37466 c -4.11843,-4.11841 -4.551,-6.52044 -1.68956,-9.38186 2.6645,-2.6645 3.87861,-2.48503 7.46752,1.1039 4.70861,4.7086 3.7974,11.93181 -1.5052,11.93181 -0.34041,0 -2.26315,-1.64423 -4.27276,-3.65385 z M 403.0816,842.47557 c -3.71065,-1.38003 -5.83119,-4.43107 -5.36505,-7.71927 0.91112,-6.42726 11.03345,-2.31266 11.03345,4.48496 0,3.44044 -2.01806,4.59191 -5.6684,3.23431 z m -19.91446,-18.67901 c -4.75589,-5.2552 1.83572,-8.7937 6.9165,-3.71292 2.0538,2.0538 2.27876,2.95101 1.09695,4.375 -2.07893,2.50495 -5.3953,2.23095 -8.01345,-0.66208 z"
       style="fill-opacity:1" />
    <path
       id="path3344"
       d="M 512.5,1029.2171 C 466.60121,1011.6158 439.64366,997.8388 410,976.83305 316.42372,910.5241 256.8632,810.29879 242.88755,695.625 c -2.8619,-23.48266 -2.81876,-70.01974 0.0856,-92.35185 6.47517,-49.78826 18.41235,-89.47929 39.7571,-132.19194 19.02514,-38.07091 43.93825,-72.69921 74.13557,-103.0457 63.47861,-63.79219 142.17493,-102.53014 233.75917,-115.06702 22.35233,-3.05979 75.77581,-3.10187 98.39508,-0.0775 64.17723,8.58101 122.4657,30.2922 173.47992,64.61753 41.45243,27.89159 82.09988,68.53904 109.99146,109.99147 34.42295,51.15931 55.53995,107.93561 64.62335,173.75 3.0355,21.99368 2.9816,75.46298 -0.099,98.125 -10.6035,78.00611 -40.48325,146.99126 -89.26102,206.08236 -12.81123,15.51998 -39.43894,41.85084 -54.62999,54.02098 -27.67072,22.16807 -48.86804,35.58459 -80,50.63477 -45.97179,22.2243 -61.32251,24.6844 -70.28759,11.2645 L 740,1017.1303 739.9752,953.87765 c -0.0139,-35.31468 -0.57645,-67.11743 -1.27381,-72.00265 -2.92225,-20.47109 -9.08185,-36.10613 -19.04189,-48.33436 l -5.7468,-7.05552 10.85614,-1.49 c 40.04177,-5.49571 75.03941,-17.24441 99.38108,-33.36223 4.93627,-3.26855 14.2331,-11.01515 20.65963,-17.21467 27.854,-26.87011 43.60666,-62.62887 48.86821,-110.93146 1.93544,-17.76791 1.65645,-49.99257 -0.54196,-62.5992 -4.08768,-23.44041 -13.69925,-46.36421 -26.83945,-64.01256 -4.09506,-5.5 -8.3067,-11.1588 -9.3592,-12.57511 -1.73921,-2.3404 -1.62944,-3.69539 1.2043,-14.86632 6.413,-25.28082 5.12562,-54.23282 -3.61316,-81.25685 l -4.05888,-12.55172 -13.04723,0.13054 c -11.74825,0.1175 -14.55297,0.63591 -28.17133,5.20656 -17.41105,5.84357 -34.59509,14.17584 -55.01324,26.675 l -14.33505,8.77535 -10.56073,-2.5998 c -31.50498,-7.75576 -59.81613,-10.5487 -98.49653,-9.71683 -32.41307,0.6971 -51.32927,2.92357 -77.01112,9.06435 l -13.74767,3.28722 -12.85578,-8.06234 C 492.95531,426.88961 461.49487,415 438.89251,415 l -8.71288,0 -2.68449,7.17492 c -6.61526,17.68088 -10.77525,45.30392 -9.36645,62.1948 0.99605,11.94202 3.92601,27.14083 6.35175,32.94875 1.7175,4.11222 1.65306,4.30525 -3.3253,9.96098 -7.63038,8.66856 -15.59016,21.19021 -21.73753,34.19559 -9.93171,21.01157 -14.40456,42.72165 -14.41258,69.95502 -0.0247,83.95138 29.91484,140.85868 90.00489,171.0757 19.86358,9.98864 56.65008,20.23098 83.25851,23.18138 l 7.64341,0.84752 -6.71558,8.92016 c -7.72012,10.25451 -13.24713,22.61124 -15.73117,35.17018 -1.61617,8.17112 -2.03388,8.90045 -6.31384,11.02419 -11.3453,5.62957 -22.07329,7.68165 -40.27625,7.70417 -20.93595,0.0259 -29.11094,-2.22262 -43.79956,-12.04699 -10.37581,-6.93976 -16.96145,-14.17565 -27.35496,-30.05593 -7.84027,-11.97915 -17.43568,-22.37033 -26.26973,-28.44833 -13.84711,-9.52706 -30.28181,-14.48175 -41.95075,-12.6472 -17.05515,2.68136 -14.69864,11.6009 6.875,26.02226 15.49239,10.35623 26.38334,24.81959 39.60919,52.60167 8.07026,16.95231 9.34922,18.87117 18.89844,28.35383 11.79391,11.71173 19.53341,16.4742 35.26846,21.70233 20.29433,6.74299 42.51243,7.77002 70.40653,3.25455 5.8928,-0.95393 10.83917,-1.60943 10.99193,-1.45666 0.15276,0.15275 0.45722,18.36201 0.6766,40.46501 0.38665,38.9584 0.32004,40.2933 -2.17839,43.6549 -4.62137,6.2181 -8.7597,8.4349 -16.46846,8.8218 -3.96236,0.1988 -8.04805,0.038 -9.0793,-0.3575 z M 493.4375,907.39987 c -2.9369,-1.71058 -2.7957,-6.98641 0.23032,-8.6059 5.32815,-2.85153 13.83218,-0.66515 13.83218,3.55628 0,5.18307 -8.55755,8.25596 -14.0625,5.04962 z m 30,-3.75 c -3.02426,-1.76147 -2.73754,-5.62286 0.59064,-7.954 6.08406,-4.26143 16.28426,-0.9509 13.44074,4.36229 -2.44831,4.57469 -9.32257,6.33434 -14.03138,3.59171 z m -61.98074,-1.89573 c -1.99155,-1.39495 -2.73391,-2.99446 -2.46562,-5.3125 0.33108,-2.86067 1.04143,-3.37076 5.16691,-3.71029 8.02005,-0.66006 13.71647,5.14413 9.34195,9.51865 -2.128,2.128 -8.68244,1.85813 -12.04324,-0.49586 z M 436.5378,886.8109 c -3.72295,-2.60766 -5.59439,-6.37571 -4.64781,-9.35811 1.13652,-3.58088 7.43905,-3.23739 11.29182,0.6154 6.64635,6.64633 0.98981,14.08963 -6.64401,8.74271 z m -19.49208,-23.3734 c -4.06605,-3.69649 -5.14307,-7.66158 -2.73513,-10.06951 C 418.18761,849.49096 425,854.6062 425,861.3944 c 0,1.89082 -0.85726,3.66709 -1.97724,4.09686 -2.69939,1.03585 -2.50509,1.10261 -5.97704,-2.05376 z m -17.69595,-23.92556 c -4.26335,-6.50672 0.99922,-10.99129 6.68358,-5.6955 3.85149,3.58821 3.19982,7.93057 -1.26758,8.44653 -2.46336,0.28451 -3.90775,-0.44917 -5.416,-2.75103 z M 383.74486,823.9972 c -5.35515,-4.33635 -0.0894,-8.95898 5.52715,-4.85208 2.62526,1.91964 2.21316,6.27999 -0.64555,6.83053 -1.08341,0.20864 -3.28012,-0.68166 -4.8816,-1.97845 z"
       style="fill-opacity:1" />
    <path
       id="path3342"
       d="M 505.32006,1026.2713 C 446.39274,1005.5278 388.48174,966.98548 345.38452,919.82696 254.0408,819.87543 219.62261,682.19149 253.08221,550.58774 274.67225,465.66954 325.23902,388.37035 394.375,334.59975 422.84701,312.4556 467.74741,287.15994 498.75,275.79774 615.83034,232.8887 740.95316,244.23412 845.96271,307.28099 984.4253,390.41279 1058.8738,548.08523 1035.5251,708.75 c -5.9911,41.22534 -17.671,78.13501 -37.38016,118.125 -44.14178,89.56399 -118.21968,157.80116 -211.69068,194.9998 -25.97051,10.3355 -35.7805,10.3861 -43.24041,0.2233 -2.52521,-3.4401 -2.60589,-5.253 -3.28184,-73.74996 -0.66582,-67.47124 -0.80131,-70.61502 -3.45737,-80.22314 -3.69516,-13.36704 -9.83433,-26.01386 -16.74884,-34.50301 l -5.68055,-6.97418 15.16488,-2.22873 C 821.02201,810.92575 872.21833,768.31059 889.19467,691.25 893.49574,671.72624 895,656.3963 895,632.088 c 0,-42.22476 -9.06295,-70.20659 -32.6894,-100.92838 l -7.2793,-9.46536 3.29415,-12.40964 c 2.86271,-10.78437 3.31075,-15.02896 3.42094,-32.40962 0.13775,-21.72746 -1.49145,-32.46539 -7.77588,-51.25 l -3.34551,-10 -9.35391,-0.37315 c -21.2472,-0.84759 -53.61979,11.2575 -88.3455,33.03504 l -12.69941,7.96417 -12.92559,-3.01784 C 697.53671,446.28401 672.33225,443.46337 640,443.46337 c -32.37463,0 -61.04475,3.32198 -89.62847,10.38517 l -10.25347,2.53368 -11.62153,-7.34926 c -35.70474,-22.57907 -67.25901,-34.54031 -89.06727,-33.76262 l -9.94574,0.35466 -3.37891,10.625 c -6.18337,19.44365 -7.71962,29.25226 -7.73326,49.375 -0.0125,18.17625 0.77661,24.08155 5.44976,40.79255 l 1.61986,5.79255 -5.6922,6.70745 c -16.43351,19.36459 -28.44831,46.14985 -32.94384,73.44359 -2.89812,17.59536 -1.96983,55.17241 1.91797,77.63886 4.61075,26.64415 15.16483,54.28054 27.88889,73.02844 7.19033,10.59441 22.39765,26.17081 33.96268,34.78698 11.70639,8.72148 35.40864,20.62078 51.36053,25.78465 14.63647,4.73807 36.78597,9.6817 51.95376,11.59579 l 12.01375,1.51608 -5.67241,6.95652 c -7.06765,8.6676 -13.24808,21.85828 -16.3742,34.94689 -1.31824,5.51927 -2.73095,10.57572 -3.13936,11.23654 -0.99738,1.61378 -18.20115,7.16066 -27.89535,8.99406 -11.33545,2.14381 -32.76768,0.84906 -42.47467,-2.56594 -17.15643,-6.0358 -30.39985,-17.51352 -43.96096,-38.09982 -16.33979,-24.80448 -33.7551,-37.8265 -55.97734,-41.85617 -13.45945,-2.44066 -26.74317,2.11968 -24.53973,8.42457 1.27786,3.65645 8.13878,10.18468 17.94928,17.0789 15.82244,11.11903 27.29152,25.60736 37.02292,46.76925 8.47855,18.43745 10.61628,22.27596 16.20998,29.10667 11.66704,14.24716 29.54177,25.00329 49.82433,29.98184 17.20564,4.22329 51.26071,3.75959 70.12022,-0.95478 2.60542,-0.65127 2.62419,-0.44216 3.32115,36.98874 0.73553,39.50159 0.275,44.60769 -4.49868,49.87939 -6.55864,7.2429 -15.33084,8.0116 -30.49763,2.6726 z M 493.4375,907.39987 c -2.9369,-1.71058 -2.7957,-6.98641 0.23032,-8.6059 5.57435,-2.9833 13.83218,-0.38668 13.83218,4.34943 0,4.29039 -9.21531,7.0797 -14.0625,4.25647 z m 29.77679,-4.36416 c -2.71585,-2.71583 -2.45718,-5.04872 0.81385,-7.33983 5.28089,-3.69888 13.47186,-2.18374 13.47186,2.49197 0,5.71829 -10.01627,9.1173 -14.28571,4.84786 z m -61.68615,-1.23159 c -3.21195,-2.24973 -3.69782,-7.43373 -0.8009,-8.54538 C 466.62773,890.99451 475,894.4356 475,899.125 c 0,4.60385 -8.35248,6.26489 -13.47186,2.67912 z m -25.74957,-15.79911 c -3.90552,-3.44203 -4.74555,-8.22903 -1.78203,-10.15513 5.09637,-3.31234 14.64731,5.05606 11.5008,10.07683 -2.05849,3.28468 -6.0442,3.31679 -9.71877,0.0783 z M 417.00893,863.4375 c -3.07275,-2.76062 -3.70295,-4.37914 -3.40703,-8.75 0.22543,-3.32953 7.00308,-2.90601 9.45222,0.59064 2.32305,3.31662 2.51539,7.40235 0.44588,9.47186 -2.07756,2.07756 -2.90365,1.91052 -6.49107,-1.3125 z m -17.65915,-23.92556 c -4.30095,-6.56409 0.74391,-10.95834 6.43872,-5.60834 3.99428,3.75242 3.49447,7.83766 -1.02272,8.35937 -2.46337,0.28451 -3.90775,-0.44917 -5.416,-2.75103 z M 383.74486,823.9972 c -5.35515,-4.33635 -0.0894,-8.95898 5.52715,-4.85208 2.62527,1.91964 2.21317,6.27999 -0.64555,6.83053 -1.08341,0.20864 -3.28012,-0.68166 -4.8816,-1.97845 z"
       style="fill-opacity:1" />
    <path
       id="path3340"
       d="M 504.375,1025.8568 C 462.92506,1010.4999 424.91346,989.22675 391.25,962.54654 374.38432,949.17952 340.82047,915.61567 327.45346,898.75 306.50997,872.3248 286.30696,838.76204 273.65441,809.375 208.52586,658.10629 241.69509,483.32114 357.50811,367.50811 453.37151,271.6447 589.22476,231.29444 723.09629,258.92345 c 58.89405,12.15482 119.5793,41.13709 168.77871,80.60589 60.96104,48.90422 108.9342,120.95098 131.8102,197.95453 10.7024,36.02574 15.5596,71.4914 15.4953,113.14113 -0.051,33.01524 -1.722,49.99287 -7.9357,80.625 -26.8033,132.13461 -121.6206,243.5448 -248.55812,292.0555 -18.36979,7.0202 -24.13393,7.8301 -31.75008,4.4611 -10.8418,-4.7958 -10.22545,-0.3571 -10.96391,-78.95913 C 739.39676,887.50664 739.05502,878.27704 737.05474,870 734.11706,857.84407 725.359,839.67384 718.90515,832.34526 l -5.08987,-5.77974 7.77986,-0.84512 c 4.27892,-0.46482 16.04236,-2.49589 26.14099,-4.51346 43.06322,-8.60351 75.09929,-24.14534 99.15562,-48.10388 29.09049,-28.97224 44.60441,-69.15537 48.12753,-124.6567 3.07366,-48.42099 -6.49134,-83.23119 -32.08793,-116.77859 l -8.00786,-10.49526 2.44494,-7.9158 c 3.97238,-12.86109 5.54315,-27.25105 4.77781,-43.77014 -0.77426,-16.71171 -2.88639,-28.11348 -8.07276,-43.57865 L 850.625,415.625 l -10,-0.35466 c -21.88573,-0.77622 -50.92083,10.17931 -87.76164,33.11421 l -12.76165,7.94465 -9.73835,-2.47969 C 702.55939,446.76979 673.18554,443.36004 640,443.36004 c -33.11008,0 -62.56401,3.41116 -90.18981,10.44517 l -9.56482,2.43536 -12.31018,-7.76798 C 509.90249,437.09356 487.60685,426.1516 471.25,420.65334 c -13.04425,-4.38474 -15.63649,-4.84115 -28.00183,-4.9302 l -13.62682,-0.0981 -3.07166,8.75 c -10.0321,28.57778 -11.47438,61.56154 -3.838,87.77224 2.47546,8.49664 2.50651,9.18844 0.53305,11.875 -1.15255,1.56902 -5.42882,7.35276 -9.5028,12.85276 C 400.47669,554.7835 390.9456,577.4829 386.86416,600.8876 385.7108,607.50148 385,619.57386 385,632.54908 c 0,97.70277 41.53794,159.45848 123.125,183.05361 13.37554,3.86824 38.57666,9.09091 49.24934,10.20642 4.19411,0.43838 7.62566,0.96838 7.62566,1.17778 0,0.2094 -2.67731,3.92615 -5.94959,8.25942 -7.30267,9.67054 -11.97816,19.8983 -15.63965,34.2122 l -2.79249,10.91672 -7.60842,2.84536 c -17.77008,6.64556 -39.67731,8.55915 -55.44374,4.84297 -19.81046,-4.66935 -36.37142,-17.61596 -50.98412,-39.85706 -16.63824,-25.32405 -35.5127,-39.01749 -58.71305,-42.59636 -7.82825,-1.20759 -18.7498,1.41445 -21.15004,5.07768 -1.8161,2.77172 -1.77305,3.30374 0.57381,7.09185 2.42498,3.91419 8.22658,8.72709 19.97646,16.57206 12.3217,8.22673 25.7894,26.65522 35.76653,48.94098 3.48661,7.78799 8.87055,17.6317 11.9643,21.8749 11.13005,15.2653 30.00441,27.10084 51.875,32.52923 17.32436,4.29998 53.9629,3.78406 70.9375,-0.99892 2.05099,-0.57791 2.18721,1.90454 2.18282,39.78036 -0.005,37.83632 -0.15905,40.64992 -2.44032,44.39132 -5.92109,9.7109 -16.24295,11.2623 -33.18,4.9873 z M 494.0625,907.46105 c -3.56878,-1.43447 -3.81478,-6.83669 -0.39468,-8.66708 3.75764,-2.01102 9.48268,-1.52826 11.76344,0.99195 2.77184,3.06285 2.60683,4.69543 -0.7094,7.0182 -3.08006,2.15737 -6.41512,2.3629 -10.65936,0.65693 z m 29.15179,-4.42534 c -2.57308,-2.57307 -2.47847,-3.77153 0.53571,-6.78571 4.54674,-4.54674 13.75,-2.75352 13.75,2.67912 0,5.07517 -10.34371,8.04859 -14.28571,4.10659 z M 462.84,902.23665 c -6.24762,-3.01534 -4.38216,-9.73665 2.70235,-9.73665 4.08705,0 9.45765,3.78971 9.45765,6.6737 0,4.22934 -6.40208,5.84195 -12.16,3.06295 z m -27.11485,-16.13119 c -2.59698,-2.04278 -3.27531,-3.53606 -2.98106,-6.5625 0.53213,-5.47346 5.88288,-6.15329 10.36506,-1.31693 3.42774,3.69858 3.97216,6.69266 1.64085,9.02397 -2.21598,2.21598 -5.24024,1.83243 -9.02485,-1.14454 z m -19.94656,-23.43575 c -3.08984,-3.41424 -2.28463,-9.41931 1.33205,-9.93407 3.8502,-0.54801 8.13637,4.08822 7.65258,8.27758 -0.49867,4.31818 -5.70685,5.2784 -8.98463,1.65649 z m -15.70173,-22.59285 c -3.07169,-3.07169 -3.27209,-5.44376 -0.64414,-7.62477 2.67889,-2.22328 8.69228,2.227 8.69228,6.43281 0,3.98099 -4.58069,4.65941 -8.04814,1.19196 z m -16.04872,-15.77274 c -5.26649,-3.68878 -2.13287,-7.92266 4.10771,-5.55 3.51206,1.33529 4.22375,5.55262 1.13691,6.73714 -2.50605,0.96166 -2.01956,1.07178 -5.24462,-1.18714 z"
       style="fill-opacity:1" />
  </g>
</svg>
